<mxfile modified="2024-04-18T12:21:24.033Z" host="app.diagrams.net" agent="Mozilla/5.0 (Macintosh; Intel Mac OS X 10.15; rv:124.0) Gecko/20100101 Firefox/124.0" etag="esYCG0ReUIGlj4vdfL-H" version="24.2.5" type="github" pages="3">
  <diagram id="oyVTfbrthm_-wxzk1ZXb" name="Context">
    <mxGraphModel dx="1865" dy="1247" grid="1" gridSize="10" guides="1" tooltips="1" connect="1" arrows="1" fold="1" page="1" pageScale="1" pageWidth="827" pageHeight="1169" math="0" shadow="0">
      <root>
        <mxCell id="0" />
        <mxCell id="1" parent="0" />
        <mxCell id="NtYJZDPGMn4Rj3Byr3jy-1" value="Uses" style="edgeStyle=orthogonalEdgeStyle;rounded=0;orthogonalLoop=1;jettySize=auto;html=1;dashed=1;endArrow=classic;endFill=1;strokeColor=#4D4D4D;fontColor=#000000;entryX=0.25;entryY=0;entryDx=0;entryDy=0;entryPerimeter=0;" parent="1" source="Yy4u_d4SeMjxJnoAWtQS-2" target="Yy4u_d4SeMjxJnoAWtQS-10" edge="1">
          <mxGeometry relative="1" as="geometry">
            <Array as="points">
              <mxPoint x="160" y="410" />
              <mxPoint x="161" y="410" />
            </Array>
          </mxGeometry>
        </mxCell>
        <mxCell id="Yy4u_d4SeMjxJnoAWtQS-2" value="&lt;div&gt;&lt;font size=&quot;1&quot;&gt;&lt;b style=&quot;font-size: 14px&quot;&gt;JAC Staff&lt;/b&gt;&lt;/font&gt;&lt;/div&gt;&lt;div&gt;[Person]&lt;b&gt;&lt;br&gt;&lt;/b&gt;&lt;/div&gt;&lt;div&gt;&lt;b&gt;&lt;br&gt;&lt;/b&gt;&lt;/div&gt;&lt;div&gt;Member of JAC team&lt;/div&gt;&lt;div&gt;&lt;b&gt;&lt;br&gt;&lt;/b&gt;&lt;/div&gt;" style="html=1;dashed=0;whitespace=wrap;shape=mxgraph.c4.person;align=center;points=[[0.5,0,0],[1,0.5,0],[1,0.75,0],[0.75,1,0],[0.5,1,0],[0.25,1,0],[0,0.75,0],[0,0.5,0]];fillColor=#004C99;fontColor=#FFFFFF;strokeColor=none;" parent="1" vertex="1">
          <mxGeometry x="90" y="230" width="150" height="140" as="geometry" />
        </mxCell>
        <mxCell id="Yy4u_d4SeMjxJnoAWtQS-7" style="edgeStyle=orthogonalEdgeStyle;rounded=0;orthogonalLoop=1;jettySize=auto;html=1;exitX=0.5;exitY=1;exitDx=0;exitDy=0;exitPerimeter=0;" parent="1" source="Yy4u_d4SeMjxJnoAWtQS-2" target="Yy4u_d4SeMjxJnoAWtQS-2" edge="1">
          <mxGeometry relative="1" as="geometry" />
        </mxCell>
        <mxCell id="NtYJZDPGMn4Rj3Byr3jy-10" value="&lt;div&gt;Uses&lt;/div&gt;" style="edgeStyle=orthogonalEdgeStyle;rounded=0;orthogonalLoop=1;jettySize=auto;html=1;dashed=1;endArrow=classic;endFill=1;strokeColor=#4D4D4D;fontColor=#000000;entryX=0.75;entryY=0;entryDx=0;entryDy=0;entryPerimeter=0;" parent="1" source="Yy4u_d4SeMjxJnoAWtQS-8" target="Yy4u_d4SeMjxJnoAWtQS-10" edge="1">
          <mxGeometry relative="1" as="geometry" />
        </mxCell>
        <mxCell id="Yy4u_d4SeMjxJnoAWtQS-8" value="&lt;div&gt;&lt;font size=&quot;1&quot;&gt;&lt;b style=&quot;font-size: 14px&quot;&gt;Candidate&lt;/b&gt;&lt;/font&gt;&lt;/div&gt;&lt;div&gt;[Person]&lt;b&gt;&lt;br&gt;&lt;/b&gt;&lt;/div&gt;&lt;div&gt;&lt;b&gt;&lt;br&gt;&lt;/b&gt;&lt;/div&gt;&lt;div&gt;Invited to take&amp;nbsp;&lt;/div&gt;&lt;div&gt;an assessment&lt;/div&gt;" style="html=1;dashed=0;whitespace=wrap;shape=mxgraph.c4.person;align=center;points=[[0.5,0,0],[1,0.5,0],[1,0.75,0],[0.75,1,0],[0.5,1,0],[0.25,1,0],[0,0.75,0],[0,0.5,0]];fillColor=#004C99;fontColor=#FFFFFF;strokeColor=none;" parent="1" vertex="1">
          <mxGeometry x="278" y="230" width="150" height="140" as="geometry" />
        </mxCell>
        <UserObject label="&lt;font size=&quot;1&quot;&gt;&lt;b style=&quot;font-size: 14px&quot;&gt;QT Platform&lt;br&gt;&lt;/b&gt;&lt;/font&gt;&lt;div&gt;[Software System]&lt;/div&gt;&lt;br&gt;&lt;div&gt;Create and run qualifying test assessments&lt;br&gt;&lt;/div&gt;" id="Yy4u_d4SeMjxJnoAWtQS-10">
          <mxCell style="rounded=1;whiteSpace=wrap;html=1;labelBackgroundColor=none;fillColor=#dae8fc;fontColor=#000000;align=center;arcSize=10;strokeColor=#6c8ebf;points=[[0.25,0,0],[0.5,0,0],[0.75,0,0],[1,0.25,0],[1,0.5,0],[1,0.75,0],[0.75,1,0],[0.5,1,0],[0.25,1,0],[0,0.75,0],[0,0.5,0],[0,0.25,0]];" parent="1" vertex="1">
            <mxGeometry x="65" y="450" width="385" height="110" as="geometry" />
          </mxCell>
        </UserObject>
        <mxCell id="Yy4u_d4SeMjxJnoAWtQS-14" value="&lt;b style=&quot;font-size: 14px&quot;&gt;Gov.UK Notify&lt;br&gt;&lt;/b&gt;&lt;div&gt;[Software System]&lt;/div&gt;&lt;br&gt;&lt;div&gt;Send email, sms and mail&lt;br&gt;&lt;/div&gt;" style="rounded=1;whiteSpace=wrap;html=1;labelBackgroundColor=none;align=center;arcSize=10;points=[[0.25,0,0],[0.5,0,0],[0.75,0,0],[1,0.25,0],[1,0.5,0],[1,0.75,0],[0.75,1,0],[0.5,1,0],[0.25,1,0],[0,0.75,0],[0,0.5,0],[0,0.25,0]];fillColor=#E6E6E6;fontColor=#4D4D4D;strokeColor=#999999;" parent="1" vertex="1">
          <mxGeometry x="70" y="650" width="160" height="110.00000000000001" as="geometry" />
        </mxCell>
        <mxCell id="Yy4u_d4SeMjxJnoAWtQS-22" value="" style="endArrow=none;html=1;rounded=0;dashed=1;strokeColor=#4D4D4D;fontColor=#4D4D4D;" parent="1" edge="1">
          <mxGeometry width="50" height="50" relative="1" as="geometry">
            <mxPoint x="353" y="600" as="sourcePoint" />
            <mxPoint x="353" y="560" as="targetPoint" />
            <Array as="points" />
          </mxGeometry>
        </mxCell>
        <mxCell id="Yy4u_d4SeMjxJnoAWtQS-24" value="Sends email using" style="edgeStyle=orthogonalEdgeStyle;rounded=0;orthogonalLoop=1;jettySize=auto;html=1;dashed=1;strokeColor=#4D4D4D;fontColor=#4D4D4D;exitX=0.028;exitY=1.027;exitDx=0;exitDy=0;exitPerimeter=0;" parent="1" edge="1">
          <mxGeometry relative="1" as="geometry">
            <mxPoint x="149.0999999999999" y="562.97" as="sourcePoint" />
            <mxPoint x="149" y="650" as="targetPoint" />
            <mxPoint as="offset" />
            <Array as="points">
              <mxPoint x="149" y="600" />
              <mxPoint x="149" y="600" />
            </Array>
          </mxGeometry>
        </mxCell>
        <mxCell id="Yy4u_d4SeMjxJnoAWtQS-25" value="Send emails to" style="endArrow=classic;html=1;edgeStyle=orthogonalEdgeStyle;rounded=0;dashed=1;strokeColor=#4D4D4D;fontColor=#4D4D4D;exitX=0.5;exitY=1;exitDx=0;exitDy=0;exitPerimeter=0;entryX=0.5;entryY=0;entryDx=0;entryDy=0;entryPerimeter=0;" parent="1" source="Yy4u_d4SeMjxJnoAWtQS-14" target="Yy4u_d4SeMjxJnoAWtQS-8" edge="1">
          <mxGeometry x="-0.957" width="50" height="50" relative="1" as="geometry">
            <mxPoint x="400" y="560" as="sourcePoint" />
            <mxPoint x="555" y="230" as="targetPoint" />
            <Array as="points">
              <mxPoint x="150" y="820" />
              <mxPoint x="30" y="820" />
              <mxPoint x="30" y="180" />
              <mxPoint x="353" y="180" />
            </Array>
            <mxPoint as="offset" />
          </mxGeometry>
        </mxCell>
        <mxCell id="Yy4u_d4SeMjxJnoAWtQS-27" value="" style="endArrow=classic;html=1;dashed=1;rounded=0;entryX=0.5;entryY=0;entryDx=0;entryDy=0;entryPerimeter=0;strokeColor=#4D4D4D;fontColor=#4D4D4D;" parent="1" target="Yy4u_d4SeMjxJnoAWtQS-2" edge="1">
          <mxGeometry width="50" height="50" relative="1" as="geometry">
            <mxPoint x="165" y="180" as="sourcePoint" />
            <mxPoint x="145" y="230" as="targetPoint" />
          </mxGeometry>
        </mxCell>
        <mxCell id="Yy4u_d4SeMjxJnoAWtQS-28" value="&lt;b style=&quot;font-size: 14px&quot;&gt;Sentry&lt;br&gt;&lt;/b&gt;&lt;div&gt;[Software System]&lt;/div&gt;&lt;br&gt;&lt;div&gt;Application monitoring&lt;br&gt;&lt;/div&gt;" style="rounded=1;whiteSpace=wrap;html=1;labelBackgroundColor=none;align=center;arcSize=10;points=[[0.25,0,0],[0.5,0,0],[0.75,0,0],[1,0.25,0],[1,0.5,0],[1,0.75,0],[0.75,1,0],[0.5,1,0],[0.25,1,0],[0,0.75,0],[0,0.5,0],[0,0.25,0]];fillColor=#E6E6E6;fontColor=#4D4D4D;strokeColor=#999999;" parent="1" vertex="1">
          <mxGeometry x="273" y="650" width="160" height="110.00000000000001" as="geometry" />
        </mxCell>
        <mxCell id="Yy4u_d4SeMjxJnoAWtQS-29" value="Logs errors to" style="endArrow=classic;html=1;dashed=1;rounded=0;strokeColor=#4D4D4D;fontColor=#4D4D4D;" parent="1" edge="1">
          <mxGeometry x="-1" y="-10" width="50" height="50" relative="1" as="geometry">
            <mxPoint x="352" y="610" as="sourcePoint" />
            <mxPoint x="352" y="650" as="targetPoint" />
            <mxPoint x="10" y="-10" as="offset" />
          </mxGeometry>
        </mxCell>
        <mxCell id="Yy4u_d4SeMjxJnoAWtQS-34" value="&lt;h1&gt;System context diagram for QT Platform&lt;br&gt;&lt;/h1&gt;&lt;p&gt;18/04/2024&lt;/p&gt;" style="text;html=1;strokeColor=none;fillColor=none;spacing=5;spacingTop=-20;whiteSpace=wrap;overflow=hidden;rounded=0;align=left;" parent="1" vertex="1">
          <mxGeometry x="26" y="33" width="504" height="70" as="geometry" />
        </mxCell>
        <mxCell id="Yy4u_d4SeMjxJnoAWtQS-47" value="" style="group" parent="1" vertex="1" connectable="0">
          <mxGeometry x="615" y="50" width="191" height="53" as="geometry" />
        </mxCell>
        <mxCell id="Yy4u_d4SeMjxJnoAWtQS-42" value="" style="html=1;dashed=0;whitespace=wrap;shape=mxgraph.c4.person;align=center;points=[[0.5,0,0],[1,0.5,0],[1,0.75,0],[0.75,1,0],[0.5,1,0],[0.25,1,0],[0,0.75,0],[0,0.5,0]];fillColor=#004C99;fontColor=#FFFFFF;strokeColor=none;" parent="Yy4u_d4SeMjxJnoAWtQS-47" vertex="1">
          <mxGeometry x="0.8232758620689654" y="13" width="5.762931034482758" height="11" as="geometry" />
        </mxCell>
        <mxCell id="Yy4u_d4SeMjxJnoAWtQS-43" value="&lt;div&gt;&lt;b&gt;Key&lt;/b&gt;&lt;br&gt;Person&lt;/div&gt;&lt;div&gt;Planned software system&lt;/div&gt;&lt;div&gt;Existing software system&lt;br&gt;&lt;/div&gt;" style="text;html=1;strokeColor=none;fillColor=none;align=left;verticalAlign=middle;whiteSpace=wrap;rounded=0;fontColor=#000000;" parent="Yy4u_d4SeMjxJnoAWtQS-47" vertex="1">
          <mxGeometry x="11.525862068965516" width="179.47413793103448" height="53" as="geometry" />
        </mxCell>
        <mxCell id="Yy4u_d4SeMjxJnoAWtQS-44" value="" style="rounded=1;whiteSpace=wrap;html=1;labelBackgroundColor=none;fillColor=#dae8fc;fontColor=#000000;align=center;arcSize=10;strokeColor=#6c8ebf;points=[[0.25,0,0],[0.5,0,0],[0.75,0,0],[1,0.25,0],[1,0.5,0],[1,0.75,0],[0.75,1,0],[0.5,1,0],[0.25,1,0],[0,0.75,0],[0,0.5,0],[0,0.25,0]];" parent="Yy4u_d4SeMjxJnoAWtQS-47" vertex="1">
          <mxGeometry y="28" width="6.586206896551723" height="10" as="geometry" />
        </mxCell>
        <mxCell id="Yy4u_d4SeMjxJnoAWtQS-46" value="" style="rounded=1;whiteSpace=wrap;html=1;labelBackgroundColor=none;fontColor=#000000;align=center;arcSize=10;points=[[0.25,0,0],[0.5,0,0],[0.75,0,0],[1,0.25,0],[1,0.5,0],[1,0.75,0],[0.75,1,0],[0.5,1,0],[0.25,1,0],[0,0.75,0],[0,0.5,0],[0,0.25,0]];fillColor=#E6E6E6;strokeColor=#999999;" parent="Yy4u_d4SeMjxJnoAWtQS-47" vertex="1">
          <mxGeometry y="42" width="6.586206896551723" height="10" as="geometry" />
        </mxCell>
      </root>
    </mxGraphModel>
  </diagram>
  <diagram id="qIHdqA6hKMyGVF0FZv5K" name="Container">
    <mxGraphModel dx="1710" dy="1970" grid="1" gridSize="10" guides="1" tooltips="1" connect="1" arrows="1" fold="1" page="1" pageScale="1" pageWidth="1169" pageHeight="827" math="0" shadow="0">
      <root>
        <mxCell id="qgMI_8nPVHWgDjGu28tY-0" />
        <mxCell id="qgMI_8nPVHWgDjGu28tY-1" parent="qgMI_8nPVHWgDjGu28tY-0" />
        <mxCell id="d4kPaj57CPP4-XgVyVjP-19" value="&lt;div style=&quot;text-align: left ; font-size: 14px&quot;&gt;&lt;font size=&quot;1&quot;&gt;&lt;b style=&quot;font-size: 12px ; line-height: 100%&quot;&gt;QT Platform&lt;/b&gt;&lt;/font&gt;&lt;br&gt;&lt;/div&gt;&lt;div style=&quot;text-align: left&quot;&gt;&lt;font style=&quot;font-size: 10px&quot;&gt;[Software System]&lt;/font&gt;&lt;/div&gt;" style="rounded=1;whiteSpace=wrap;html=1;labelBackgroundColor=none;align=left;arcSize=5;verticalAlign=bottom;points=[[0.25,0,0],[0.5,0,0],[0.75,0,0],[1,0.25,0],[1,0.5,0],[1,0.75,0],[0.75,1,0],[0.5,1,0],[0.25,1,0],[0,0.75,0],[0,0.5,0],[0,0.25,0]];dashed=1;strokeWidth=1;perimeterSpacing=0;spacingLeft=4;spacingBottom=2;strokeColor=#6C8EBF;" parent="qgMI_8nPVHWgDjGu28tY-1" vertex="1">
          <mxGeometry x="90" y="-510" width="840" height="370" as="geometry" />
        </mxCell>
        <mxCell id="d4kPaj57CPP4-XgVyVjP-16" style="edgeStyle=orthogonalEdgeStyle;rounded=0;orthogonalLoop=1;jettySize=auto;html=1;entryX=0.5;entryY=0;entryDx=0;entryDy=0;entryPerimeter=0;dashed=1;endArrow=classic;endFill=1;strokeColor=#4D4D4D;fontColor=#000000;" parent="qgMI_8nPVHWgDjGu28tY-1" source="ME3mW_0argk6ZvIcgB3c-7" target="Z5H9BcT7CgaYJNZk_hKb-2" edge="1">
          <mxGeometry relative="1" as="geometry">
            <Array as="points">
              <mxPoint x="305" y="-340" />
              <mxPoint x="410" y="-340" />
            </Array>
          </mxGeometry>
        </mxCell>
        <mxCell id="ME3mW_0argk6ZvIcgB3c-0" value="Uses" style="edgeStyle=orthogonalEdgeStyle;rounded=0;orthogonalLoop=1;jettySize=auto;html=1;strokeColor=#4D4D4D;fontColor=#4D4D4D;dashed=1;" parent="qgMI_8nPVHWgDjGu28tY-1" source="ME3mW_0argk6ZvIcgB3c-1" target="ME3mW_0argk6ZvIcgB3c-7" edge="1">
          <mxGeometry relative="1" as="geometry">
            <Array as="points">
              <mxPoint x="310" y="-550" />
              <mxPoint x="310" y="-550" />
            </Array>
          </mxGeometry>
        </mxCell>
        <mxCell id="ME3mW_0argk6ZvIcgB3c-1" value="&lt;div&gt;&lt;font size=&quot;1&quot;&gt;&lt;b style=&quot;font-size: 14px&quot;&gt;JAC Staff&lt;/b&gt;&lt;/font&gt;&lt;/div&gt;&lt;div&gt;[Person]&lt;b&gt;&lt;br&gt;&lt;/b&gt;&lt;/div&gt;&lt;div&gt;&lt;b&gt;&lt;br&gt;&lt;/b&gt;&lt;/div&gt;&lt;div&gt;Member of JAC team&lt;/div&gt;&lt;div&gt;&lt;b&gt;&lt;br&gt;&lt;/b&gt;&lt;/div&gt;" style="html=1;dashed=0;whitespace=wrap;shape=mxgraph.c4.person;align=center;points=[[0.5,0,0],[1,0.5,0],[1,0.75,0],[0.75,1,0],[0.5,1,0],[0.25,1,0],[0,0.75,0],[0,0.5,0]];fillColor=#004C99;fontColor=#FFFFFF;strokeColor=none;" parent="qgMI_8nPVHWgDjGu28tY-1" vertex="1">
          <mxGeometry x="235" y="-710" width="150" height="140" as="geometry" />
        </mxCell>
        <mxCell id="ME3mW_0argk6ZvIcgB3c-2" style="edgeStyle=orthogonalEdgeStyle;rounded=0;orthogonalLoop=1;jettySize=auto;html=1;exitX=0.5;exitY=1;exitDx=0;exitDy=0;exitPerimeter=0;" parent="qgMI_8nPVHWgDjGu28tY-1" source="ME3mW_0argk6ZvIcgB3c-1" target="ME3mW_0argk6ZvIcgB3c-1" edge="1">
          <mxGeometry relative="1" as="geometry" />
        </mxCell>
        <mxCell id="ME3mW_0argk6ZvIcgB3c-3" value="&lt;div&gt;Uses&lt;/div&gt;" style="edgeStyle=orthogonalEdgeStyle;rounded=0;orthogonalLoop=1;jettySize=auto;html=1;strokeColor=#4D4D4D;fontColor=#4D4D4D;dashed=1;" parent="qgMI_8nPVHWgDjGu28tY-1" source="ME3mW_0argk6ZvIcgB3c-4" target="ME3mW_0argk6ZvIcgB3c-9" edge="1">
          <mxGeometry relative="1" as="geometry" />
        </mxCell>
        <mxCell id="ME3mW_0argk6ZvIcgB3c-4" value="&lt;div&gt;&lt;font size=&quot;1&quot;&gt;&lt;b style=&quot;font-size: 14px&quot;&gt;Candidate&lt;/b&gt;&lt;/font&gt;&lt;/div&gt;&lt;div&gt;[Person]&lt;b&gt;&lt;br&gt;&lt;/b&gt;&lt;/div&gt;&lt;div&gt;&lt;b&gt;&lt;br&gt;&lt;/b&gt;&lt;/div&gt;&lt;div&gt;Invited to take&amp;nbsp;&lt;/div&gt;&lt;div&gt;an assessment&lt;/div&gt;" style="html=1;dashed=0;whitespace=wrap;shape=mxgraph.c4.person;align=center;points=[[0.5,0,0],[1,0.5,0],[1,0.75,0],[0.75,1,0],[0.5,1,0],[0.25,1,0],[0,0.75,0],[0,0.5,0]];fillColor=#004C99;fontColor=#FFFFFF;strokeColor=none;" parent="qgMI_8nPVHWgDjGu28tY-1" vertex="1">
          <mxGeometry x="435" y="-710" width="150" height="140" as="geometry" />
        </mxCell>
        <mxCell id="d4kPaj57CPP4-XgVyVjP-11" value="Uses&lt;br&gt;[Firebase SDK]" style="edgeStyle=orthogonalEdgeStyle;rounded=0;orthogonalLoop=1;jettySize=auto;html=1;dashed=1;endArrow=classic;endFill=1;strokeColor=#4D4D4D;fontColor=#000000;entryX=0.5;entryY=0;entryDx=0;entryDy=0;entryPerimeter=0;" parent="qgMI_8nPVHWgDjGu28tY-1" source="ME3mW_0argk6ZvIcgB3c-7" target="d4kPaj57CPP4-XgVyVjP-18" edge="1">
          <mxGeometry x="-0.7521" relative="1" as="geometry">
            <mxPoint x="200" y="-314" as="targetPoint" />
            <Array as="points">
              <mxPoint x="305" y="-340" />
              <mxPoint x="210" y="-340" />
            </Array>
            <mxPoint as="offset" />
          </mxGeometry>
        </mxCell>
        <mxCell id="oCIllZJ2TLv4YCGPpEvn-2" style="edgeStyle=none;rounded=0;orthogonalLoop=1;jettySize=auto;html=1;exitX=1;exitY=0.75;exitDx=0;exitDy=0;exitPerimeter=0;dashed=1;endArrow=classic;endFill=1;strokeColor=#4D4D4D;fontColor=#000000;entryX=0;entryY=0.5;entryDx=0;entryDy=0;entryPerimeter=0;" parent="qgMI_8nPVHWgDjGu28tY-1" source="ME3mW_0argk6ZvIcgB3c-7" target="ME3mW_0argk6ZvIcgB3c-17" edge="1">
          <mxGeometry relative="1" as="geometry">
            <mxPoint x="970" y="-290" as="targetPoint" />
          </mxGeometry>
        </mxCell>
        <UserObject label="&lt;font size=&quot;1&quot;&gt;&lt;b style=&quot;font-size: 14px&quot;&gt;QT Admin&lt;br&gt;&lt;/b&gt;&lt;/font&gt;&lt;div&gt;[Container: Vue SPA]&lt;/div&gt;&lt;div&gt;&lt;br&gt;&lt;/div&gt;&lt;div&gt;Create and manage qualifying test assessments&lt;br&gt;&lt;/div&gt;" id="ME3mW_0argk6ZvIcgB3c-7">
          <mxCell style="rounded=1;whiteSpace=wrap;html=1;labelBackgroundColor=none;fillColor=#dae8fc;fontColor=#000000;align=center;arcSize=10;strokeColor=#6c8ebf;points=[[0.25,0,0],[0.5,0,0],[0.75,0,0],[1,0.25,0],[1,0.5,0],[1,0.75,0],[0.75,1,0],[0.5,1,0],[0.25,1,0],[0,0.75,0],[0,0.5,0],[0,0.25,0]];" parent="qgMI_8nPVHWgDjGu28tY-1" vertex="1">
            <mxGeometry x="230" y="-490" width="160" height="110.00000000000001" as="geometry" />
          </mxCell>
        </UserObject>
        <mxCell id="d4kPaj57CPP4-XgVyVjP-13" style="edgeStyle=orthogonalEdgeStyle;rounded=0;orthogonalLoop=1;jettySize=auto;html=1;entryX=0.5;entryY=0;entryDx=0;entryDy=0;entryPerimeter=0;dashed=1;endArrow=classic;endFill=1;strokeColor=#4D4D4D;fontColor=#000000;" parent="qgMI_8nPVHWgDjGu28tY-1" source="ME3mW_0argk6ZvIcgB3c-9" target="Z5H9BcT7CgaYJNZk_hKb-1" edge="1">
          <mxGeometry relative="1" as="geometry">
            <Array as="points">
              <mxPoint x="510" y="-340" />
              <mxPoint x="610" y="-340" />
            </Array>
          </mxGeometry>
        </mxCell>
        <mxCell id="d4kPaj57CPP4-XgVyVjP-14" value="Uses&lt;br&gt;[Firebase SDK]" style="edgeStyle=orthogonalEdgeStyle;rounded=0;orthogonalLoop=1;jettySize=auto;html=1;dashed=1;endArrow=classic;endFill=1;strokeColor=#4D4D4D;fontColor=#000000;" parent="qgMI_8nPVHWgDjGu28tY-1" source="ME3mW_0argk6ZvIcgB3c-9" target="Z5H9BcT7CgaYJNZk_hKb-2" edge="1">
          <mxGeometry x="-0.7671" relative="1" as="geometry">
            <Array as="points">
              <mxPoint x="510" y="-340" />
              <mxPoint x="410" y="-340" />
            </Array>
            <mxPoint as="offset" />
          </mxGeometry>
        </mxCell>
        <mxCell id="oCIllZJ2TLv4YCGPpEvn-1" style="edgeStyle=none;rounded=0;orthogonalLoop=1;jettySize=auto;html=1;exitX=1;exitY=0.75;exitDx=0;exitDy=0;exitPerimeter=0;dashed=1;endArrow=classic;endFill=1;strokeColor=#4D4D4D;fontColor=#000000;entryX=0;entryY=0.5;entryDx=0;entryDy=0;entryPerimeter=0;" parent="qgMI_8nPVHWgDjGu28tY-1" source="ME3mW_0argk6ZvIcgB3c-9" target="ME3mW_0argk6ZvIcgB3c-17" edge="1">
          <mxGeometry relative="1" as="geometry">
            <mxPoint x="1040" y="-390" as="targetPoint" />
            <Array as="points" />
          </mxGeometry>
        </mxCell>
        <mxCell id="wcIvwXbRENTkJkZ9AoZO-0" value="Logs errors to" style="edgeLabel;html=1;align=center;verticalAlign=middle;resizable=0;points=[];" vertex="1" connectable="0" parent="oCIllZJ2TLv4YCGPpEvn-1">
          <mxGeometry x="0.002" y="-1" relative="1" as="geometry">
            <mxPoint x="146" y="30" as="offset" />
          </mxGeometry>
        </mxCell>
        <mxCell id="ME3mW_0argk6ZvIcgB3c-9" value="&lt;font size=&quot;1&quot;&gt;&lt;b style=&quot;font-size: 14px&quot;&gt;QT&lt;/b&gt;&lt;/font&gt;&lt;div&gt;[Container: Vue SPA]&lt;/div&gt;&lt;br&gt;&lt;div&gt;Take a qualifying test assessment&lt;br&gt;&lt;/div&gt;" style="rounded=1;whiteSpace=wrap;html=1;labelBackgroundColor=none;fillColor=#dae8fc;fontColor=#000000;align=center;arcSize=10;strokeColor=#6c8ebf;points=[[0.25,0,0],[0.5,0,0],[0.75,0,0],[1,0.25,0],[1,0.5,0],[1,0.75,0],[0.75,1,0],[0.5,1,0],[0.25,1,0],[0,0.75,0],[0,0.5,0],[0,0.25,0]];" parent="qgMI_8nPVHWgDjGu28tY-1" vertex="1">
          <mxGeometry x="430" y="-490" width="160" height="110.00000000000001" as="geometry" />
        </mxCell>
        <mxCell id="ME3mW_0argk6ZvIcgB3c-11" value="&lt;b style=&quot;font-size: 14px&quot;&gt;Gov.UK Notify&lt;br&gt;&lt;/b&gt;&lt;div&gt;[Software System]&lt;/div&gt;&lt;br&gt;&lt;div&gt;Send email, sms and mail&lt;br&gt;&lt;/div&gt;" style="rounded=1;whiteSpace=wrap;html=1;labelBackgroundColor=none;align=center;arcSize=10;points=[[0.25,0,0],[0.5,0,0],[0.75,0,0],[1,0.25,0],[1,0.5,0],[1,0.75,0],[0.75,1,0],[0.5,1,0],[0.25,1,0],[0,0.75,0],[0,0.5,0],[0,0.25,0]];fillColor=#E6E6E6;fontColor=#4D4D4D;strokeColor=#999999;" parent="qgMI_8nPVHWgDjGu28tY-1" vertex="1">
          <mxGeometry x="730" y="-110" width="160" height="110.00000000000001" as="geometry" />
        </mxCell>
        <mxCell id="ME3mW_0argk6ZvIcgB3c-14" value="Send emails to" style="endArrow=classic;html=1;edgeStyle=orthogonalEdgeStyle;rounded=0;entryX=0.5;entryY=0;entryDx=0;entryDy=0;entryPerimeter=0;dashed=1;strokeColor=#4D4D4D;fontColor=#4D4D4D;" parent="qgMI_8nPVHWgDjGu28tY-1" source="ME3mW_0argk6ZvIcgB3c-11" target="ME3mW_0argk6ZvIcgB3c-4" edge="1">
          <mxGeometry x="-0.7005" width="50" height="50" relative="1" as="geometry">
            <mxPoint x="560" y="-380" as="sourcePoint" />
            <mxPoint x="710" y="-710" as="targetPoint" />
            <Array as="points">
              <mxPoint x="50" y="-80" />
              <mxPoint x="50" y="-750" />
              <mxPoint x="510" y="-750" />
            </Array>
            <mxPoint as="offset" />
          </mxGeometry>
        </mxCell>
        <mxCell id="ME3mW_0argk6ZvIcgB3c-16" value="" style="endArrow=classic;html=1;dashed=1;rounded=0;entryX=0.5;entryY=0;entryDx=0;entryDy=0;entryPerimeter=0;strokeColor=#4D4D4D;fontColor=#4D4D4D;" parent="qgMI_8nPVHWgDjGu28tY-1" target="ME3mW_0argk6ZvIcgB3c-1" edge="1">
          <mxGeometry width="50" height="50" relative="1" as="geometry">
            <mxPoint x="310" y="-750" as="sourcePoint" />
            <mxPoint x="305" y="-710" as="targetPoint" />
          </mxGeometry>
        </mxCell>
        <mxCell id="ME3mW_0argk6ZvIcgB3c-17" value="&lt;b style=&quot;font-size: 14px&quot;&gt;Sentry&lt;br&gt;&lt;/b&gt;&lt;div&gt;[Software System]&lt;/div&gt;&lt;br&gt;&lt;div&gt;Application monitoring&lt;br&gt;&lt;/div&gt;" style="rounded=1;whiteSpace=wrap;html=1;labelBackgroundColor=none;align=center;arcSize=10;points=[[0.25,0,0],[0.5,0,0],[0.75,0,0],[1,0.25,0],[1,0.5,0],[1,0.75,0],[0.75,1,0],[0.5,1,0],[0.25,1,0],[0,0.75,0],[0,0.5,0],[0,0.25,0]];fillColor=#E6E6E6;fontColor=#4D4D4D;strokeColor=#999999;" parent="qgMI_8nPVHWgDjGu28tY-1" vertex="1">
          <mxGeometry x="970" y="-366" width="160" height="110.00000000000001" as="geometry" />
        </mxCell>
        <mxCell id="ME3mW_0argk6ZvIcgB3c-23" value="&lt;h1&gt;Container diagram for QT Platform&lt;br&gt;&lt;/h1&gt;&lt;p&gt;18/04/2024&lt;/p&gt;" style="text;html=1;strokeColor=none;fillColor=none;spacing=5;spacingTop=-20;whiteSpace=wrap;overflow=hidden;rounded=0;align=left;" parent="qgMI_8nPVHWgDjGu28tY-1" vertex="1">
          <mxGeometry x="20" y="-817.5" width="470" height="70" as="geometry" />
        </mxCell>
        <mxCell id="ME3mW_0argk6ZvIcgB3c-27" value="" style="group" parent="qgMI_8nPVHWgDjGu28tY-1" vertex="1" connectable="0">
          <mxGeometry x="930" y="-799" width="232" height="53" as="geometry" />
        </mxCell>
        <mxCell id="ME3mW_0argk6ZvIcgB3c-28" value="" style="html=1;dashed=0;whitespace=wrap;shape=mxgraph.c4.person;align=center;points=[[0.5,0,0],[1,0.5,0],[1,0.75,0],[0.75,1,0],[0.5,1,0],[0.25,1,0],[0,0.75,0],[0,0.5,0]];fillColor=#004C99;fontColor=#FFFFFF;strokeColor=none;" parent="ME3mW_0argk6ZvIcgB3c-27" vertex="1">
          <mxGeometry x="1" y="13" width="7" height="11" as="geometry" />
        </mxCell>
        <mxCell id="ME3mW_0argk6ZvIcgB3c-29" value="&lt;div&gt;&lt;b&gt;Key&lt;/b&gt;&lt;br&gt;Person&lt;/div&gt;&lt;div&gt;Planned software system&lt;/div&gt;&lt;div&gt;Existing software system&lt;br&gt;&lt;/div&gt;" style="text;html=1;strokeColor=none;fillColor=none;align=left;verticalAlign=middle;whiteSpace=wrap;rounded=0;fontColor=#000000;" parent="ME3mW_0argk6ZvIcgB3c-27" vertex="1">
          <mxGeometry x="14" width="218" height="53" as="geometry" />
        </mxCell>
        <mxCell id="ME3mW_0argk6ZvIcgB3c-30" value="" style="rounded=1;whiteSpace=wrap;html=1;labelBackgroundColor=none;fillColor=#dae8fc;fontColor=#000000;align=center;arcSize=10;strokeColor=#6c8ebf;points=[[0.25,0,0],[0.5,0,0],[0.75,0,0],[1,0.25,0],[1,0.5,0],[1,0.75,0],[0.75,1,0],[0.5,1,0],[0.25,1,0],[0,0.75,0],[0,0.5,0],[0,0.25,0]];" parent="ME3mW_0argk6ZvIcgB3c-27" vertex="1">
          <mxGeometry y="28" width="8" height="10" as="geometry" />
        </mxCell>
        <mxCell id="ME3mW_0argk6ZvIcgB3c-31" value="" style="rounded=1;whiteSpace=wrap;html=1;labelBackgroundColor=none;fontColor=#000000;align=center;arcSize=10;points=[[0.25,0,0],[0.5,0,0],[0.75,0,0],[1,0.25,0],[1,0.5,0],[1,0.75,0],[0.75,1,0],[0.5,1,0],[0.25,1,0],[0,0.75,0],[0,0.5,0],[0,0.25,0]];fillColor=#E6E6E6;strokeColor=#999999;" parent="ME3mW_0argk6ZvIcgB3c-27" vertex="1">
          <mxGeometry y="42" width="8" height="10" as="geometry" />
        </mxCell>
        <mxCell id="Z5H9BcT7CgaYJNZk_hKb-1" value="&lt;font size=&quot;1&quot;&gt;&lt;b style=&quot;font-size: 14px&quot;&gt;Cloud Storage&lt;br&gt;&lt;/b&gt;&lt;/font&gt;&lt;div&gt;[Container: Firebase / GCP]&lt;br&gt;&lt;/div&gt;&lt;br&gt;&lt;div&gt;Stores documents including assessments&lt;br&gt;&lt;/div&gt;" style="rounded=1;whiteSpace=wrap;html=1;labelBackgroundColor=none;fillColor=#dae8fc;fontColor=#000000;align=center;arcSize=10;strokeColor=#6c8ebf;points=[[0.25,0,0],[0.5,0,0],[0.75,0,0],[1,0.25,0],[1,0.5,0],[1,0.75,0],[0.75,1,0],[0.5,1,0],[0.25,1,0],[0,0.75,0],[0,0.5,0],[0,0.25,0]];" parent="qgMI_8nPVHWgDjGu28tY-1" vertex="1">
          <mxGeometry x="530" y="-299" width="160" height="110.00000000000001" as="geometry" />
        </mxCell>
        <mxCell id="Z5H9BcT7CgaYJNZk_hKb-2" value="&lt;font size=&quot;1&quot;&gt;&lt;b style=&quot;font-size: 14px&quot;&gt;Authentication&lt;/b&gt;&lt;/font&gt;&lt;div&gt;[Container: Firebase / GCP]&lt;/div&gt;&lt;br&gt;&lt;div&gt;Google and email authentication&lt;br&gt;&lt;/div&gt;" style="rounded=1;whiteSpace=wrap;html=1;labelBackgroundColor=none;fillColor=#dae8fc;fontColor=#000000;align=center;arcSize=10;strokeColor=#6c8ebf;points=[[0.25,0,0],[0.5,0,0],[0.75,0,0],[1,0.25,0],[1,0.5,0],[1,0.75,0],[0.75,1,0],[0.5,1,0],[0.25,1,0],[0,0.75,0],[0,0.5,0],[0,0.25,0]];" parent="qgMI_8nPVHWgDjGu28tY-1" vertex="1">
          <mxGeometry x="330" y="-299" width="160" height="110.00000000000001" as="geometry" />
        </mxCell>
        <mxCell id="H7DVfOk4aFpIhN0DfyVF-0" value="Sends e-mail using&lt;br&gt;[JSON/HTTPS]" style="rounded=0;orthogonalLoop=1;jettySize=auto;html=1;entryX=0.5;entryY=0;entryDx=0;entryDy=0;entryPerimeter=0;dashed=1;endArrow=classic;endFill=1;strokeColor=#4D4D4D;fontColor=#000000;" parent="qgMI_8nPVHWgDjGu28tY-1" source="Z5H9BcT7CgaYJNZk_hKb-3" target="ME3mW_0argk6ZvIcgB3c-11" edge="1">
          <mxGeometry relative="1" as="geometry" />
        </mxCell>
        <mxCell id="Z5H9BcT7CgaYJNZk_hKb-3" value="&lt;font size=&quot;1&quot;&gt;&lt;b style=&quot;font-size: 14px&quot;&gt;Cloud Functions&lt;br&gt;&lt;/b&gt;&lt;/font&gt;&lt;div&gt;[Container: Firebase / GCP]&lt;/div&gt;&lt;br&gt;&lt;div&gt;Callable, scheduled and background functions&lt;br&gt;&lt;/div&gt;" style="rounded=1;whiteSpace=wrap;html=1;labelBackgroundColor=none;fillColor=#dae8fc;fontColor=#000000;align=center;arcSize=10;strokeColor=#6c8ebf;points=[[0.25,0,0],[0.5,0,0],[0.75,0,0],[1,0.25,0],[1,0.5,0],[1,0.75,0],[0.75,1,0],[0.5,1,0],[0.25,1,0],[0,0.75,0],[0,0.5,0],[0,0.25,0]];" parent="qgMI_8nPVHWgDjGu28tY-1" vertex="1">
          <mxGeometry x="730" y="-299" width="160" height="110.00000000000001" as="geometry" />
        </mxCell>
        <mxCell id="d4kPaj57CPP4-XgVyVjP-18" value="&lt;font size=&quot;1&quot;&gt;&lt;b&gt;&lt;span style=&quot;font-size: 14px&quot;&gt;Cloud Firestore&lt;br&gt;&lt;/span&gt;&lt;/b&gt;&lt;/font&gt;&lt;div&gt;[Container: Firebase / GCP]&lt;/div&gt;&lt;div&gt;&lt;br&gt;&lt;/div&gt;&lt;div&gt;Stores exercises, applications and related data&lt;br&gt;&lt;/div&gt;" style="rounded=1;whiteSpace=wrap;html=1;labelBackgroundColor=none;fillColor=#dae8fc;fontColor=#000000;align=center;arcSize=10;strokeColor=#6c8ebf;points=[[0.25,0,0],[0.5,0,0],[0.75,0,0],[1,0.25,0],[1,0.5,0],[1,0.75,0],[0.75,1,0],[0.5,1,0],[0.25,1,0],[0,0.75,0],[0,0.5,0],[0,0.25,0]];" parent="qgMI_8nPVHWgDjGu28tY-1" vertex="1">
          <mxGeometry x="130" y="-299" width="160" height="110.00000000000001" as="geometry" />
        </mxCell>
        <mxCell id="rX4Qp6W2WeFixLNtLebE-0" value="&lt;font size=&quot;1&quot;&gt;&lt;b style=&quot;font-size: 14px&quot;&gt;API&lt;/b&gt;&lt;/font&gt;&lt;div&gt;[Container: Firebase / GCP]&lt;/div&gt;&lt;br&gt;&lt;div&gt;Create a QT, get scores and responses&lt;br&gt;&lt;/div&gt;" style="rounded=1;whiteSpace=wrap;html=1;labelBackgroundColor=none;fillColor=#dae8fc;fontColor=#000000;align=center;arcSize=10;strokeColor=#6c8ebf;points=[[0.25,0,0],[0.5,0,0],[0.75,0,0],[1,0.25,0],[1,0.5,0],[1,0.75,0],[0.75,1,0],[0.5,1,0],[0.25,1,0],[0,0.75,0],[0,0.5,0],[0,0.25,0]];" vertex="1" parent="qgMI_8nPVHWgDjGu28tY-1">
          <mxGeometry x="630" y="-490" width="160" height="110.00000000000001" as="geometry" />
        </mxCell>
        <mxCell id="rX4Qp6W2WeFixLNtLebE-1" style="edgeStyle=orthogonalEdgeStyle;rounded=0;orthogonalLoop=1;jettySize=auto;html=1;entryX=0.5;entryY=0;entryDx=0;entryDy=0;entryPerimeter=0;dashed=1;endArrow=classic;endFill=1;strokeColor=#4D4D4D;fontColor=#000000;exitX=0.5;exitY=1;exitDx=0;exitDy=0;exitPerimeter=0;" edge="1" parent="qgMI_8nPVHWgDjGu28tY-1" source="rX4Qp6W2WeFixLNtLebE-0" target="Z5H9BcT7CgaYJNZk_hKb-3">
          <mxGeometry relative="1" as="geometry">
            <Array as="points">
              <mxPoint x="720" y="-340" />
              <mxPoint x="810" y="-340" />
            </Array>
            <mxPoint x="520" y="-370" as="sourcePoint" />
            <mxPoint x="620" y="-289" as="targetPoint" />
          </mxGeometry>
        </mxCell>
        <mxCell id="rX4Qp6W2WeFixLNtLebE-3" value="Uses&lt;br&gt;[Firebase SDK]" style="edgeStyle=orthogonalEdgeStyle;rounded=0;orthogonalLoop=1;jettySize=auto;html=1;dashed=1;endArrow=classic;endFill=1;strokeColor=#4D4D4D;fontColor=#000000;entryX=0.5;entryY=0;entryDx=0;entryDy=0;entryPerimeter=0;" edge="1" parent="qgMI_8nPVHWgDjGu28tY-1" target="Z5H9BcT7CgaYJNZk_hKb-1">
          <mxGeometry x="-0.8895" relative="1" as="geometry">
            <Array as="points">
              <mxPoint x="720" y="-340" />
              <mxPoint x="610" y="-340" />
            </Array>
            <mxPoint as="offset" />
            <mxPoint x="720" y="-370" as="sourcePoint" />
            <mxPoint x="420" y="-289" as="targetPoint" />
          </mxGeometry>
        </mxCell>
      </root>
    </mxGraphModel>
  </diagram>
  <diagram id="bT_P1wNmsNvtsdE23ofJ" name="Component - JO Handover">
    <mxGraphModel dx="893" dy="937" grid="1" gridSize="10" guides="1" tooltips="1" connect="1" arrows="1" fold="1" page="1" pageScale="1" pageWidth="1169" pageHeight="827" math="0" shadow="0">
      <root>
        <mxCell id="FHJdIOdrcoGGSZEKmaiz-0" />
        <mxCell id="FHJdIOdrcoGGSZEKmaiz-1" parent="FHJdIOdrcoGGSZEKmaiz-0" />
        <mxCell id="l-qVIlSCItbgcuTKevTZ-8" value="&lt;div style=&quot;text-align: left&quot;&gt;&lt;b&gt;Digital Platform&amp;nbsp;&lt;/b&gt;[Google Cloud Platform]&lt;/div&gt;" style="rounded=1;whiteSpace=wrap;html=1;labelBackgroundColor=none;align=left;arcSize=5;verticalAlign=bottom;points=[[0.25,0,0],[0.5,0,0],[0.75,0,0],[1,0.25,0],[1,0.5,0],[1,0.75,0],[0.75,1,0],[0.5,1,0],[0.25,1,0],[0,0.75,0],[0,0.5,0],[0,0.25,0]];dashed=1;strokeWidth=1;perimeterSpacing=0;spacingLeft=4;spacingBottom=2;strokeColor=#6C8EBF;fillColor=#DAE8FC;" parent="FHJdIOdrcoGGSZEKmaiz-1" vertex="1">
          <mxGeometry x="80" y="379.25" width="562" height="191.75" as="geometry" />
        </mxCell>
        <mxCell id="Cy7qZm2zSiMHH7NtzJrv-0" value="&lt;div style=&quot;text-align: left&quot;&gt;&lt;font&gt;&lt;b style=&quot;font-size: 12px ; line-height: 100%&quot;&gt;Admin&lt;/b&gt;&lt;b style=&quot;line-height: 100% ; font-size: 14px&quot;&gt;&amp;nbsp;&lt;/b&gt;&lt;/font&gt;&lt;span style=&quot;font-size: 10px&quot;&gt;[Vue SPA]&lt;/span&gt;&lt;/div&gt;" style="rounded=1;whiteSpace=wrap;html=1;labelBackgroundColor=none;align=left;arcSize=5;verticalAlign=bottom;points=[[0.25,0,0],[0.5,0,0],[0.75,0,0],[1,0.25,0],[1,0.5,0],[1,0.75,0],[0.75,1,0],[0.5,1,0],[0.25,1,0],[0,0.75,0],[0,0.5,0],[0,0.25,0]];dashed=1;strokeWidth=1;perimeterSpacing=0;spacingLeft=4;spacingBottom=2;strokeColor=#6C8EBF;fillColor=#DAE8FC;" parent="FHJdIOdrcoGGSZEKmaiz-1" vertex="1">
          <mxGeometry x="81" y="191" width="558" height="120" as="geometry" />
        </mxCell>
        <mxCell id="wQltt1HU87xI8_XSIZWK-16" style="edgeStyle=none;rounded=0;orthogonalLoop=1;jettySize=auto;html=1;dashed=1;startArrow=none;startFill=0;" parent="FHJdIOdrcoGGSZEKmaiz-1" source="wQltt1HU87xI8_XSIZWK-0" target="wQltt1HU87xI8_XSIZWK-1" edge="1">
          <mxGeometry relative="1" as="geometry" />
        </mxCell>
        <mxCell id="wQltt1HU87xI8_XSIZWK-0" value="Exercises&lt;br&gt;list" style="rounded=0;whiteSpace=wrap;html=1;" parent="FHJdIOdrcoGGSZEKmaiz-1" vertex="1">
          <mxGeometry x="132" y="221" width="80" height="60" as="geometry" />
        </mxCell>
        <mxCell id="wQltt1HU87xI8_XSIZWK-17" style="edgeStyle=none;rounded=0;orthogonalLoop=1;jettySize=auto;html=1;dashed=1;startArrow=none;startFill=0;" parent="FHJdIOdrcoGGSZEKmaiz-1" source="wQltt1HU87xI8_XSIZWK-1" target="wQltt1HU87xI8_XSIZWK-2" edge="1">
          <mxGeometry relative="1" as="geometry" />
        </mxCell>
        <mxCell id="wQltt1HU87xI8_XSIZWK-1" value="Exercise" style="rounded=0;whiteSpace=wrap;html=1;" parent="FHJdIOdrcoGGSZEKmaiz-1" vertex="1">
          <mxGeometry x="232" y="221" width="80" height="60" as="geometry" />
        </mxCell>
        <mxCell id="wQltt1HU87xI8_XSIZWK-18" style="edgeStyle=none;rounded=0;orthogonalLoop=1;jettySize=auto;html=1;dashed=1;startArrow=none;startFill=0;" parent="FHJdIOdrcoGGSZEKmaiz-1" source="wQltt1HU87xI8_XSIZWK-2" target="wQltt1HU87xI8_XSIZWK-4" edge="1">
          <mxGeometry relative="1" as="geometry" />
        </mxCell>
        <mxCell id="wQltt1HU87xI8_XSIZWK-2" value="Handover&lt;br&gt;list" style="rounded=0;whiteSpace=wrap;html=1;" parent="FHJdIOdrcoGGSZEKmaiz-1" vertex="1">
          <mxGeometry x="332" y="221" width="80" height="60" as="geometry" />
        </mxCell>
        <mxCell id="wQltt1HU87xI8_XSIZWK-19" style="edgeStyle=none;rounded=0;orthogonalLoop=1;jettySize=auto;html=1;dashed=1;startArrow=none;startFill=0;" parent="FHJdIOdrcoGGSZEKmaiz-1" source="wQltt1HU87xI8_XSIZWK-4" target="wQltt1HU87xI8_XSIZWK-6" edge="1">
          <mxGeometry relative="1" as="geometry" />
        </mxCell>
        <mxCell id="wQltt1HU87xI8_XSIZWK-4" value="Transfer handover&lt;br&gt;data" style="rounded=0;whiteSpace=wrap;html=1;" parent="FHJdIOdrcoGGSZEKmaiz-1" vertex="1">
          <mxGeometry x="432" y="221" width="80" height="60" as="geometry" />
        </mxCell>
        <mxCell id="wQltt1HU87xI8_XSIZWK-6" value="Transfer&lt;br&gt;result" style="rounded=0;whiteSpace=wrap;html=1;" parent="FHJdIOdrcoGGSZEKmaiz-1" vertex="1">
          <mxGeometry x="532" y="221" width="80" height="60" as="geometry" />
        </mxCell>
        <mxCell id="wQltt1HU87xI8_XSIZWK-15" value="&lt;h2&gt;&lt;br&gt;&lt;/h2&gt;" style="text;html=1;strokeColor=none;fillColor=none;align=left;verticalAlign=top;whiteSpace=wrap;rounded=0;" parent="FHJdIOdrcoGGSZEKmaiz-1" vertex="1">
          <mxGeometry x="60" y="160" width="270" height="479" as="geometry" />
        </mxCell>
        <mxCell id="jk-K9ZkFIXfCG3ybhGgG-0" value="[Cloud Firestore]" style="shape=cylinder2;whiteSpace=wrap;html=1;boundedLbl=1;backgroundOutline=1;size=6;dashed=1;verticalAlign=bottom;align=left;strokeColor=#6C8EBF;fillColor=none;" parent="FHJdIOdrcoGGSZEKmaiz-1" vertex="1">
          <mxGeometry x="97" y="401" width="233" height="130" as="geometry" />
        </mxCell>
        <mxCell id="7VYzlniha7YmrVooVvfJ-0" value="&lt;div style=&quot;text-align: left&quot;&gt;[Cloud function]&lt;/div&gt;" style="rounded=1;whiteSpace=wrap;html=1;labelBackgroundColor=none;align=left;arcSize=5;verticalAlign=bottom;points=[[0.25,0,0],[0.5,0,0],[0.75,0,0],[1,0.25,0],[1,0.5,0],[1,0.75,0],[0.75,1,0],[0.5,1,0],[0.25,1,0],[0,0.75,0],[0,0.5,0],[0,0.25,0]];dashed=1;strokeWidth=1;perimeterSpacing=0;spacingLeft=4;spacingBottom=2;strokeColor=#6C8EBF;fillColor=none;" parent="FHJdIOdrcoGGSZEKmaiz-1" vertex="1">
          <mxGeometry x="383" y="401" width="242" height="130" as="geometry" />
        </mxCell>
        <mxCell id="wQltt1HU87xI8_XSIZWK-3" value="transferHandoverData" style="ellipse;whiteSpace=wrap;html=1;" parent="FHJdIOdrcoGGSZEKmaiz-1" vertex="1">
          <mxGeometry x="429" y="434.5" width="150" height="65" as="geometry" />
        </mxCell>
        <mxCell id="jk-K9ZkFIXfCG3ybhGgG-1" style="edgeStyle=none;rounded=0;orthogonalLoop=1;jettySize=auto;html=1;dashed=1;startArrow=classic;startFill=1;endArrow=classic;endFill=1;entryX=0.996;entryY=0.5;entryDx=0;entryDy=0;entryPerimeter=0;exitX=0;exitY=0.5;exitDx=0;exitDy=0;exitPerimeter=0;" parent="FHJdIOdrcoGGSZEKmaiz-1" source="7VYzlniha7YmrVooVvfJ-0" target="jk-K9ZkFIXfCG3ybhGgG-0" edge="1">
          <mxGeometry relative="1" as="geometry">
            <mxPoint x="380" y="477" as="sourcePoint" />
          </mxGeometry>
        </mxCell>
        <mxCell id="l-qVIlSCItbgcuTKevTZ-4" value="" style="group;" parent="FHJdIOdrcoGGSZEKmaiz-1" vertex="1" connectable="0">
          <mxGeometry x="223" y="424.75" width="419" height="130" as="geometry" />
        </mxCell>
        <mxCell id="l-qVIlSCItbgcuTKevTZ-5" value="" style="rounded=0;whiteSpace=wrap;html=1;align=left;" parent="l-qVIlSCItbgcuTKevTZ-4" vertex="1">
          <mxGeometry width="58" height="75" as="geometry" />
        </mxCell>
        <mxCell id="l-qVIlSCItbgcuTKevTZ-6" value="" style="rounded=0;whiteSpace=wrap;html=1;align=left;" parent="l-qVIlSCItbgcuTKevTZ-4" vertex="1">
          <mxGeometry x="4" y="4.5" width="58" height="75" as="geometry" />
        </mxCell>
        <mxCell id="l-qVIlSCItbgcuTKevTZ-7" value="Applications" style="rounded=0;whiteSpace=wrap;html=1;align=left;" parent="l-qVIlSCItbgcuTKevTZ-4" vertex="1">
          <mxGeometry x="8" y="9.5" width="58" height="75" as="geometry" />
        </mxCell>
        <mxCell id="l-qVIlSCItbgcuTKevTZ-9" value="" style="group" parent="FHJdIOdrcoGGSZEKmaiz-1" vertex="1" connectable="0">
          <mxGeometry x="140" y="424.75" width="66" height="84.5" as="geometry" />
        </mxCell>
        <mxCell id="l-qVIlSCItbgcuTKevTZ-2" value="" style="rounded=0;whiteSpace=wrap;html=1;align=left;" parent="l-qVIlSCItbgcuTKevTZ-9" vertex="1">
          <mxGeometry width="58" height="75" as="geometry" />
        </mxCell>
        <mxCell id="l-qVIlSCItbgcuTKevTZ-1" value="" style="rounded=0;whiteSpace=wrap;html=1;align=left;" parent="l-qVIlSCItbgcuTKevTZ-9" vertex="1">
          <mxGeometry x="4" y="4.5" width="58" height="75" as="geometry" />
        </mxCell>
        <mxCell id="l-qVIlSCItbgcuTKevTZ-0" value="Exercises" style="rounded=0;whiteSpace=wrap;html=1;align=left;" parent="l-qVIlSCItbgcuTKevTZ-9" vertex="1">
          <mxGeometry x="8" y="9.5" width="58" height="75" as="geometry" />
        </mxCell>
        <mxCell id="wQltt1HU87xI8_XSIZWK-12" style="edgeStyle=none;rounded=0;orthogonalLoop=1;jettySize=auto;html=1;entryX=0.5;entryY=1;entryDx=0;entryDy=0;dashed=1;" parent="FHJdIOdrcoGGSZEKmaiz-1" source="wQltt1HU87xI8_XSIZWK-3" target="wQltt1HU87xI8_XSIZWK-6" edge="1">
          <mxGeometry relative="1" as="geometry" />
        </mxCell>
        <mxCell id="wQltt1HU87xI8_XSIZWK-11" value="Calls transferHandoverData cloud function&lt;br&gt;[Firebase SDK, Authenticated]" style="rounded=0;orthogonalLoop=1;jettySize=auto;html=1;dashed=1;exitX=0.5;exitY=1;exitDx=0;exitDy=0;entryX=0.5;entryY=0;entryDx=0;entryDy=0;" parent="FHJdIOdrcoGGSZEKmaiz-1" source="wQltt1HU87xI8_XSIZWK-4" target="wQltt1HU87xI8_XSIZWK-3" edge="1">
          <mxGeometry relative="1" as="geometry">
            <mxPoint x="392" y="401" as="targetPoint" />
          </mxGeometry>
        </mxCell>
        <mxCell id="_ZTETtyVzC4-YtSqnYLp-0" value="Uses" style="edgeStyle=none;rounded=0;orthogonalLoop=1;jettySize=auto;html=1;dashed=1;startArrow=none;startFill=0;endArrow=classic;endFill=1;" parent="FHJdIOdrcoGGSZEKmaiz-1" source="lX81kTQ5WUVa666wcs8d-0" edge="1">
          <mxGeometry x="-0.1837" relative="1" as="geometry">
            <mxPoint x="360" y="190" as="targetPoint" />
            <mxPoint as="offset" />
          </mxGeometry>
        </mxCell>
        <mxCell id="lX81kTQ5WUVa666wcs8d-0" value="&lt;div&gt;&lt;font style=&quot;font-size: 12px&quot;&gt;&lt;b&gt;JAC Staff&lt;/b&gt;&lt;/font&gt;&lt;/div&gt;&lt;div&gt;&lt;b&gt;&lt;br&gt;&lt;/b&gt;&lt;/div&gt;" style="html=1;dashed=0;whitespace=wrap;shape=mxgraph.c4.person;align=center;points=[[0.5,0,0],[1,0.5,0],[1,0.75,0],[0.75,1,0],[0.5,1,0],[0.25,1,0],[0,0.75,0],[0,0.5,0]];fillColor=#004C99;fontColor=#FFFFFF;strokeColor=none;" parent="FHJdIOdrcoGGSZEKmaiz-1" vertex="1">
          <mxGeometry x="322.5" y="41" width="75" height="100" as="geometry" />
        </mxCell>
        <mxCell id="fXgWsGPFsmEE3yL_V0f3-1" value="&lt;div style=&quot;text-align: left&quot;&gt;&lt;font&gt;&lt;b style=&quot;font-size: 12px ; line-height: 100%&quot;&gt;Judicial Office&lt;/b&gt;&lt;b style=&quot;line-height: 100% ; font-size: 14px&quot;&gt;&amp;nbsp;&lt;/b&gt;&lt;/font&gt;&lt;span style=&quot;font-size: 10px&quot;&gt;[Organisation]&lt;/span&gt;&lt;/div&gt;" style="rounded=1;whiteSpace=wrap;html=1;labelBackgroundColor=none;align=left;arcSize=5;verticalAlign=bottom;points=[[0.25,0,0],[0.5,0,0],[0.75,0,0],[1,0.25,0],[1,0.5,0],[1,0.75,0],[0.75,1,0],[0.5,1,0],[0.25,1,0],[0,0.75,0],[0,0.5,0],[0,0.25,0]];dashed=1;strokeWidth=1;perimeterSpacing=0;spacingLeft=4;spacingBottom=2;fillColor=#E6E6E6;strokeColor=#808080;" vertex="1" parent="FHJdIOdrcoGGSZEKmaiz-1">
          <mxGeometry x="83" y="630" width="558" height="150" as="geometry" />
        </mxCell>
        <mxCell id="fXgWsGPFsmEE3yL_V0f3-0" value="&lt;div&gt;&lt;font style=&quot;font-size: 12px&quot;&gt;&lt;b&gt;JO Staff&lt;/b&gt;&lt;/font&gt;&lt;/div&gt;&lt;div&gt;&lt;b&gt;&lt;br&gt;&lt;/b&gt;&lt;/div&gt;" style="html=1;dashed=0;whitespace=wrap;shape=mxgraph.c4.person;align=center;points=[[0.5,0,0],[1,0.5,0],[1,0.75,0],[0.75,1,0],[0.5,1,0],[0.25,1,0],[0,0.75,0],[0,0.5,0]];fontColor=#FFFFFF;strokeColor=none;fillColor=#999999;" vertex="1" parent="FHJdIOdrcoGGSZEKmaiz-1">
          <mxGeometry x="321.5" y="670" width="75" height="100" as="geometry" />
        </mxCell>
        <mxCell id="wQltt1HU87xI8_XSIZWK-7" value="&lt;div style=&quot;text-align: left ; font-size: 14px&quot;&gt;&lt;font size=&quot;1&quot;&gt;&lt;b style=&quot;font-size: 12px ; line-height: 100%&quot;&gt;eHR ATS&lt;/b&gt;&lt;span style=&quot;font-size: 12px ; line-height: 100%&quot;&gt; [API]&lt;/span&gt;&lt;/font&gt;&lt;/div&gt;" style="rounded=1;whiteSpace=wrap;html=1;labelBackgroundColor=none;align=left;arcSize=5;verticalAlign=bottom;points=[[0.25,0,0],[0.5,0,0],[0.75,0,0],[1,0.25,0],[1,0.5,0],[1,0.75,0],[0.75,1,0],[0.5,1,0],[0.25,1,0],[0,0.75,0],[0,0.5,0],[0,0.25,0]];dashed=1;strokeWidth=1;perimeterSpacing=0;spacingLeft=4;spacingBottom=2;fillColor=#E6E6E6;strokeColor=#666666;" parent="FHJdIOdrcoGGSZEKmaiz-1" vertex="1">
          <mxGeometry x="387.5" y="642" width="231" height="28" as="geometry" />
        </mxCell>
        <mxCell id="wQltt1HU87xI8_XSIZWK-14" value="Sends handover data&lt;br&gt;[HTTPS&amp;nbsp;(Static IP)]" style="edgeStyle=none;rounded=0;orthogonalLoop=1;jettySize=auto;html=1;dashed=1;startArrow=classic;startFill=1;exitX=0.5;exitY=1;exitDx=0;exitDy=0;" parent="FHJdIOdrcoGGSZEKmaiz-1" source="wQltt1HU87xI8_XSIZWK-3" target="wQltt1HU87xI8_XSIZWK-7" edge="1">
          <mxGeometry x="0.177" relative="1" as="geometry">
            <mxPoint as="offset" />
          </mxGeometry>
        </mxCell>
      </root>
    </mxGraphModel>
  </diagram>
</mxfile>
